<svg width="278" height="96" viewBox="0 0 278 96" fill="none" xmlns="http://www.w3.org/2000/svg">
<g filter="url(#filter0_ddd_2_3586)">
<rect x="24" y="8" width="230" height="48" rx="10" fill="#47B27D"/>
<path d="M55 32.5L58 35.5L65 28.5" stroke="white" stroke-width="2" stroke-linecap="round" stroke-linejoin="round"/>
<path d="M60 42C65.5228 42 70 37.5228 70 32C70 26.4771 65.5228 22 60 22C54.4771 22 50 26.4771 50 32C50 37.5228 54.4771 42 60 42Z" stroke="white" stroke-width="2" stroke-linecap="round" stroke-linejoin="round"/>
<path d="M82.448 35.936L82.938 34.9C83.3673 35.236 83.8387 35.488 84.352 35.656C84.8747 35.824 85.3927 35.9127 85.906 35.922C86.4193 35.922 86.8907 35.852 87.32 35.712C87.7587 35.572 88.1087 35.362 88.37 35.082C88.6313 34.802 88.762 34.4567 88.762 34.046C88.762 33.542 88.5567 33.1593 88.146 32.898C87.7447 32.6367 87.1847 32.506 86.466 32.506H84.282V31.372H86.368C86.9933 31.372 87.4787 31.246 87.824 30.994C88.1787 30.7327 88.356 30.3733 88.356 29.916C88.356 29.5707 88.2487 29.2813 88.034 29.048C87.8287 28.8053 87.544 28.6233 87.18 28.502C86.8253 28.3807 86.4193 28.32 85.962 28.32C85.514 28.3107 85.052 28.3713 84.576 28.502C84.1 28.6233 83.6427 28.8193 83.204 29.09L82.756 27.942C83.3533 27.606 83.974 27.3727 84.618 27.242C85.2713 27.102 85.9013 27.06 86.508 27.116C87.1147 27.1627 87.6607 27.3027 88.146 27.536C88.6407 27.76 89.0327 28.0587 89.322 28.432C89.6207 28.796 89.77 29.2347 89.77 29.748C89.77 30.2147 89.6487 30.63 89.406 30.994C89.1633 31.3487 88.8273 31.624 88.398 31.82C87.9687 32.0067 87.4693 32.1 86.9 32.1L86.956 31.722C87.6093 31.722 88.174 31.8293 88.65 32.044C89.1353 32.2493 89.5087 32.5433 89.77 32.926C90.0407 33.3087 90.176 33.752 90.176 34.256C90.176 34.732 90.0547 35.1567 89.812 35.53C89.5693 35.894 89.238 36.202 88.818 36.454C88.4073 36.6967 87.936 36.874 87.404 36.986C86.8813 37.098 86.3307 37.1353 85.752 37.098C85.1733 37.0607 84.5993 36.9487 84.03 36.762C83.47 36.5753 82.9427 36.3 82.448 35.936ZM96.8344 37V35.432L96.7644 35.138V32.464C96.7644 31.8947 96.5964 31.456 96.2604 31.148C95.9338 30.8307 95.4391 30.672 94.7764 30.672C94.3378 30.672 93.9084 30.7467 93.4884 30.896C93.0684 31.036 92.7138 31.2273 92.4244 31.47L91.8644 30.462C92.2471 30.154 92.7044 29.9207 93.2364 29.762C93.7778 29.594 94.3424 29.51 94.9304 29.51C95.9478 29.51 96.7318 29.7573 97.2824 30.252C97.8331 30.7467 98.1084 31.5027 98.1084 32.52V37H96.8344ZM94.3984 37.084C93.8478 37.084 93.3624 36.9907 92.9424 36.804C92.5318 36.6173 92.2144 36.3607 91.9904 36.034C91.7664 35.698 91.6544 35.32 91.6544 34.9C91.6544 34.4987 91.7478 34.1347 91.9344 33.808C92.1304 33.4813 92.4431 33.22 92.8724 33.024C93.3111 32.828 93.8991 32.73 94.6364 32.73H96.9884V33.696H94.6924C94.0204 33.696 93.5678 33.808 93.3344 34.032C93.1011 34.256 92.9844 34.5267 92.9844 34.844C92.9844 35.208 93.1291 35.502 93.4184 35.726C93.7078 35.9407 94.1091 36.048 94.6224 36.048C95.1264 36.048 95.5651 35.936 95.9384 35.712C96.3211 35.488 96.5964 35.1613 96.7644 34.732L97.0304 35.656C96.8531 36.0947 96.5404 36.4447 96.0924 36.706C95.6444 36.958 95.0798 37.084 94.3984 37.084ZM100.529 37V29.58H101.915L105.107 35.068H104.547L107.823 29.58H109.083V37H107.865V31.092L108.089 31.218L105.093 36.16H104.505L101.495 31.12L101.761 31.064V37H100.529ZM115.002 37.084C114.209 37.084 113.509 36.9207 112.902 36.594C112.305 36.2673 111.838 35.8193 111.502 35.25C111.176 34.6807 111.012 34.0273 111.012 33.29C111.012 32.5527 111.171 31.8993 111.488 31.33C111.815 30.7607 112.258 30.3173 112.818 30C113.388 29.6733 114.027 29.51 114.736 29.51C115.455 29.51 116.09 29.6687 116.64 29.986C117.191 30.3033 117.62 30.7513 117.928 31.33C118.246 31.8993 118.404 32.5667 118.404 33.332C118.404 33.388 118.4 33.4533 118.39 33.528C118.39 33.6027 118.386 33.6727 118.376 33.738H112.062V32.772H117.676L117.13 33.108C117.14 32.632 117.042 32.2073 116.836 31.834C116.631 31.4607 116.346 31.1713 115.982 30.966C115.628 30.7513 115.212 30.644 114.736 30.644C114.27 30.644 113.854 30.7513 113.49 30.966C113.126 31.1713 112.842 31.4653 112.636 31.848C112.431 32.2213 112.328 32.6507 112.328 33.136V33.36C112.328 33.8547 112.44 34.298 112.664 34.69C112.898 35.0727 113.22 35.3713 113.63 35.586C114.041 35.8007 114.512 35.908 115.044 35.908C115.483 35.908 115.88 35.8333 116.234 35.684C116.598 35.5347 116.916 35.3107 117.186 35.012L117.928 35.88C117.592 36.272 117.172 36.5707 116.668 36.776C116.174 36.9813 115.618 37.084 115.002 37.084ZM121.645 37V30.406L121.981 30.756H118.929V29.58H125.705V30.756H122.667L122.989 30.406V37H121.645ZM132.455 37L129.585 33.388L130.691 32.716L134.037 37H132.455ZM127.079 37V29.58H128.423V37H127.079ZM128.017 33.864V32.716H130.467V33.864H128.017ZM130.803 33.444L129.557 33.276L132.399 29.58H133.841L130.803 33.444ZM139.86 37V35.432L139.79 35.138V32.464C139.79 31.8947 139.622 31.456 139.286 31.148C138.959 30.8307 138.464 30.672 137.802 30.672C137.363 30.672 136.934 30.7467 136.514 30.896C136.094 31.036 135.739 31.2273 135.45 31.47L134.89 30.462C135.272 30.154 135.73 29.9207 136.262 29.762C136.803 29.594 137.368 29.51 137.956 29.51C138.973 29.51 139.757 29.7573 140.308 30.252C140.858 30.7467 141.134 31.5027 141.134 32.52V37H139.86ZM137.424 37.084C136.873 37.084 136.388 36.9907 135.968 36.804C135.557 36.6173 135.24 36.3607 135.016 36.034C134.792 35.698 134.68 35.32 134.68 34.9C134.68 34.4987 134.773 34.1347 134.96 33.808C135.156 33.4813 135.468 33.22 135.898 33.024C136.336 32.828 136.924 32.73 137.662 32.73H140.014V33.696H137.718C137.046 33.696 136.593 33.808 136.36 34.032C136.126 34.256 136.01 34.5267 136.01 34.844C136.01 35.208 136.154 35.502 136.444 35.726C136.733 35.9407 137.134 36.048 137.648 36.048C138.152 36.048 138.59 35.936 138.964 35.712C139.346 35.488 139.622 35.1613 139.79 34.732L140.056 35.656C139.878 36.0947 139.566 36.4447 139.118 36.706C138.67 36.958 138.105 37.084 137.424 37.084ZM152.382 36.37V30.756H149.162L149.092 32.184C149.073 32.6507 149.04 33.1033 148.994 33.542C148.956 33.9713 148.891 34.368 148.798 34.732C148.714 35.096 148.588 35.3947 148.42 35.628C148.252 35.8613 148.028 36.006 147.748 36.062L146.418 35.824C146.707 35.8333 146.94 35.74 147.118 35.544C147.295 35.3387 147.43 35.0587 147.524 34.704C147.626 34.3493 147.701 33.948 147.748 33.5C147.794 33.0427 147.832 32.5713 147.86 32.086L147.972 29.58H153.726V36.37H152.382ZM146.124 38.722V35.824H154.86V38.722H153.6V37H147.398V38.722H146.124ZM159.789 37.084C159.042 37.084 158.379 36.9207 157.801 36.594C157.222 36.2673 156.765 35.8193 156.429 35.25C156.093 34.6713 155.925 34.018 155.925 33.29C155.925 32.5527 156.093 31.8993 156.429 31.33C156.765 30.7607 157.222 30.3173 157.801 30C158.379 29.6733 159.042 29.51 159.789 29.51C160.526 29.51 161.184 29.6733 161.763 30C162.351 30.3173 162.808 30.7607 163.135 31.33C163.471 31.89 163.639 32.5433 163.639 33.29C163.639 34.0273 163.471 34.6807 163.135 35.25C162.808 35.8193 162.351 36.2673 161.763 36.594C161.184 36.9207 160.526 37.084 159.789 37.084ZM159.789 35.908C160.265 35.908 160.689 35.8007 161.063 35.586C161.445 35.3713 161.744 35.068 161.959 34.676C162.173 34.2747 162.281 33.8127 162.281 33.29C162.281 32.758 162.173 32.3007 161.959 31.918C161.744 31.526 161.445 31.2227 161.063 31.008C160.689 30.7933 160.265 30.686 159.789 30.686C159.313 30.686 158.888 30.7933 158.515 31.008C158.141 31.2227 157.843 31.526 157.619 31.918C157.395 32.3007 157.283 32.758 157.283 33.29C157.283 33.8127 157.395 34.2747 157.619 34.676C157.843 35.068 158.141 35.3713 158.515 35.586C158.888 35.8007 159.313 35.908 159.789 35.908ZM169.009 37.112C168.393 37.112 167.847 37.014 167.371 36.818C166.905 36.622 166.503 36.3327 166.167 35.95C165.831 35.558 165.575 35.068 165.397 34.48C165.229 33.8827 165.145 33.1827 165.145 32.38C165.145 31.7453 165.201 31.176 165.313 30.672C165.425 30.168 165.584 29.72 165.789 29.328C166.004 28.936 166.265 28.5953 166.573 28.306C166.891 28.0167 167.245 27.7787 167.637 27.592C168.039 27.396 168.477 27.2467 168.953 27.144L172.341 26.388L172.537 27.634L169.415 28.306C169.229 28.3433 169.005 28.3993 168.743 28.474C168.482 28.5487 168.216 28.6653 167.945 28.824C167.675 28.9733 167.423 29.1833 167.189 29.454C166.956 29.7247 166.769 30.0793 166.629 30.518C166.489 30.9473 166.419 31.4793 166.419 32.114C166.419 32.2913 166.424 32.4267 166.433 32.52C166.443 32.6133 166.452 32.7067 166.461 32.8C166.48 32.8933 166.494 33.0333 166.503 33.22L165.943 32.646C166.093 32.1327 166.331 31.6847 166.657 31.302C166.984 30.9193 167.376 30.6253 167.833 30.42C168.3 30.2053 168.809 30.098 169.359 30.098C170.05 30.098 170.661 30.2473 171.193 30.546C171.735 30.8447 172.159 31.2553 172.467 31.778C172.775 32.3007 172.929 32.898 172.929 33.57C172.929 34.2513 172.766 34.8627 172.439 35.404C172.122 35.936 171.669 36.356 171.081 36.664C170.493 36.9627 169.803 37.112 169.009 37.112ZM169.135 35.992C169.611 35.992 170.031 35.8893 170.395 35.684C170.759 35.4693 171.044 35.1847 171.249 34.83C171.455 34.466 171.557 34.06 171.557 33.612C171.557 33.164 171.455 32.7673 171.249 32.422C171.044 32.0767 170.759 31.806 170.395 31.61C170.031 31.4047 169.602 31.302 169.107 31.302C168.641 31.302 168.221 31.4 167.847 31.596C167.474 31.7827 167.185 32.0487 166.979 32.394C166.774 32.73 166.671 33.122 166.671 33.57C166.671 34.018 166.774 34.4287 166.979 34.802C167.194 35.166 167.483 35.4553 167.847 35.67C168.221 35.8847 168.65 35.992 169.135 35.992ZM179.331 37V35.432L179.261 35.138V32.464C179.261 31.8947 179.093 31.456 178.757 31.148C178.43 30.8307 177.935 30.672 177.273 30.672C176.834 30.672 176.405 30.7467 175.985 30.896C175.565 31.036 175.21 31.2273 174.921 31.47L174.361 30.462C174.743 30.154 175.201 29.9207 175.733 29.762C176.274 29.594 176.839 29.51 177.427 29.51C178.444 29.51 179.228 29.7573 179.779 30.252C180.329 30.7467 180.605 31.5027 180.605 32.52V37H179.331ZM176.895 37.084C176.344 37.084 175.859 36.9907 175.439 36.804C175.028 36.6173 174.711 36.3607 174.487 36.034C174.263 35.698 174.151 35.32 174.151 34.9C174.151 34.4987 174.244 34.1347 174.431 33.808C174.627 33.4813 174.939 33.22 175.369 33.024C175.807 32.828 176.395 32.73 177.133 32.73H179.485V33.696H177.189C176.517 33.696 176.064 33.808 175.831 34.032C175.597 34.256 175.481 34.5267 175.481 34.844C175.481 35.208 175.625 35.502 175.915 35.726C176.204 35.9407 176.605 36.048 177.119 36.048C177.623 36.048 178.061 35.936 178.435 35.712C178.817 35.488 179.093 35.1613 179.261 34.732L179.527 35.656C179.349 36.0947 179.037 36.4447 178.589 36.706C178.141 36.958 177.576 37.084 176.895 37.084ZM183.025 37V29.58H186.469C187.337 29.58 188.018 29.748 188.513 30.084C189.017 30.4107 189.269 30.8773 189.269 31.484C189.269 32.0907 189.031 32.562 188.555 32.898C188.088 33.2247 187.467 33.388 186.693 33.388L186.903 33.024C187.789 33.024 188.447 33.1873 188.877 33.514C189.306 33.8407 189.521 34.3213 189.521 34.956C189.521 35.6 189.278 36.104 188.793 36.468C188.317 36.8227 187.584 37 186.595 37H183.025ZM184.341 35.964H186.497C187.057 35.964 187.477 35.88 187.757 35.712C188.037 35.5347 188.177 35.2547 188.177 34.872C188.177 34.48 188.046 34.1953 187.785 34.018C187.533 33.8313 187.131 33.738 186.581 33.738H184.341V35.964ZM184.341 32.772H186.357C186.87 32.772 187.257 32.6787 187.519 32.492C187.789 32.296 187.925 32.0253 187.925 31.68C187.925 31.3253 187.789 31.0593 187.519 30.882C187.257 30.7047 186.87 30.616 186.357 30.616H184.341V32.772ZM190.392 36.986L190.476 35.852C190.542 35.8613 190.602 35.8707 190.658 35.88C190.714 35.8893 190.766 35.894 190.812 35.894C191.111 35.894 191.344 35.7913 191.512 35.586C191.69 35.3807 191.82 35.11 191.904 34.774C191.988 34.4287 192.049 34.0413 192.086 33.612C192.124 33.1827 192.152 32.7533 192.17 32.324L192.296 29.58H197.994V37H196.65V30.364L196.972 30.756H193.164L193.472 30.35L193.374 32.408C193.346 33.0613 193.295 33.6727 193.22 34.242C193.146 34.8113 193.029 35.3107 192.87 35.74C192.721 36.1693 192.511 36.5053 192.24 36.748C191.979 36.9907 191.638 37.112 191.218 37.112C191.097 37.112 190.966 37.098 190.826 37.07C190.696 37.0513 190.551 37.0233 190.392 36.986ZM203.897 37.084C203.104 37.084 202.404 36.9207 201.797 36.594C201.2 36.2673 200.733 35.8193 200.397 35.25C200.07 34.6807 199.907 34.0273 199.907 33.29C199.907 32.5527 200.066 31.8993 200.383 31.33C200.71 30.7607 201.153 30.3173 201.713 30C202.282 29.6733 202.922 29.51 203.631 29.51C204.35 29.51 204.984 29.6687 205.535 29.986C206.086 30.3033 206.515 30.7513 206.823 31.33C207.14 31.8993 207.299 32.5667 207.299 33.332C207.299 33.388 207.294 33.4533 207.285 33.528C207.285 33.6027 207.28 33.6727 207.271 33.738H200.957V32.772H206.571L206.025 33.108C206.034 32.632 205.936 32.2073 205.731 31.834C205.526 31.4607 205.241 31.1713 204.877 30.966C204.522 30.7513 204.107 30.644 203.631 30.644C203.164 30.644 202.749 30.7513 202.385 30.966C202.021 31.1713 201.736 31.4653 201.531 31.848C201.326 32.2213 201.223 32.6507 201.223 33.136V33.36C201.223 33.8547 201.335 34.298 201.559 34.69C201.792 35.0727 202.114 35.3713 202.525 35.586C202.936 35.8007 203.407 35.908 203.939 35.908C204.378 35.908 204.774 35.8333 205.129 35.684C205.493 35.5347 205.81 35.3107 206.081 35.012L206.823 35.88C206.487 36.272 206.067 36.5707 205.563 36.776C205.068 36.9813 204.513 37.084 203.897 37.084ZM209.384 37V29.58H210.728V32.73H214.956V29.58H216.3V37H214.956V33.892H210.728V37H209.384ZM223.463 37V35.432L223.393 35.138V32.464C223.393 31.8947 223.225 31.456 222.889 31.148C222.563 30.8307 222.068 30.672 221.405 30.672C220.967 30.672 220.537 30.7467 220.117 30.896C219.697 31.036 219.343 31.2273 219.053 31.47L218.493 30.462C218.876 30.154 219.333 29.9207 219.865 29.762C220.407 29.594 220.971 29.51 221.559 29.51C222.577 29.51 223.361 29.7573 223.911 30.252C224.462 30.7467 224.737 31.5027 224.737 32.52V37H223.463ZM221.027 37.084C220.477 37.084 219.991 36.9907 219.571 36.804C219.161 36.6173 218.843 36.3607 218.619 36.034C218.395 35.698 218.283 35.32 218.283 34.9C218.283 34.4987 218.377 34.1347 218.563 33.808C218.759 33.4813 219.072 33.22 219.501 33.024C219.94 32.828 220.528 32.73 221.265 32.73H223.617V33.696H221.321C220.649 33.696 220.197 33.808 219.963 34.032C219.73 34.256 219.613 34.5267 219.613 34.844C219.613 35.208 219.758 35.502 220.047 35.726C220.337 35.9407 220.738 36.048 221.251 36.048C221.755 36.048 222.194 35.936 222.567 35.712C222.95 35.488 223.225 35.1613 223.393 34.732L223.659 35.656C223.482 36.0947 223.169 36.4447 222.721 36.706C222.273 36.958 221.709 37.084 221.027 37.084ZM227.199 33.906L226.947 27.2H228.529L228.263 33.906H227.199ZM227.745 37.084C227.484 37.084 227.265 36.9953 227.087 36.818C226.91 36.6407 226.821 36.4307 226.821 36.188C226.821 35.9267 226.91 35.712 227.087 35.544C227.265 35.376 227.484 35.292 227.745 35.292C228.007 35.292 228.221 35.376 228.389 35.544C228.557 35.712 228.641 35.9267 228.641 36.188C228.641 36.4307 228.557 36.6407 228.389 36.818C228.221 36.9953 228.007 37.084 227.745 37.084Z" fill="white"/>
</g>
<defs>
<filter id="filter0_ddd_2_3586" x="0" y="0" width="278" height="96" filterUnits="userSpaceOnUse" color-interpolation-filters="sRGB">
<feFlood flood-opacity="0" result="BackgroundImageFix"/>
<feColorMatrix in="SourceAlpha" type="matrix" values="0 0 0 0 0 0 0 0 0 0 0 0 0 0 0 0 0 0 127 0" result="hardAlpha"/>
<feOffset dy="8"/>
<feGaussianBlur stdDeviation="6"/>
<feColorMatrix type="matrix" values="0 0 0 0 0.045 0 0 0 0 0.0458333 0 0 0 0 0.05 0 0 0 0.08 0"/>
<feBlend mode="normal" in2="BackgroundImageFix" result="effect1_dropShadow_2_3586"/>
<feColorMatrix in="SourceAlpha" type="matrix" values="0 0 0 0 0 0 0 0 0 0 0 0 0 0 0 0 0 0 127 0" result="hardAlpha"/>
<feOffset dy="16"/>
<feGaussianBlur stdDeviation="12"/>
<feColorMatrix type="matrix" values="0 0 0 0 0.045 0 0 0 0 0.0458333 0 0 0 0 0.05 0 0 0 0.04 0"/>
<feBlend mode="normal" in2="effect1_dropShadow_2_3586" result="effect2_dropShadow_2_3586"/>
<feColorMatrix in="SourceAlpha" type="matrix" values="0 0 0 0 0 0 0 0 0 0 0 0 0 0 0 0 0 0 127 0" result="hardAlpha"/>
<feOffset dy="1"/>
<feGaussianBlur stdDeviation="1"/>
<feColorMatrix type="matrix" values="0 0 0 0 0.045 0 0 0 0 0.0458333 0 0 0 0 0.05 0 0 0 0.08 0"/>
<feBlend mode="normal" in2="effect2_dropShadow_2_3586" result="effect3_dropShadow_2_3586"/>
<feBlend mode="normal" in="SourceGraphic" in2="effect3_dropShadow_2_3586" result="shape"/>
</filter>
</defs>
</svg>
