<svg width="211" height="48" viewBox="0 0 211 48" fill="none" xmlns="http://www.w3.org/2000/svg">
<g filter="url(#filter0_ddd_2_3894)">
<rect width="211" height="48" rx="10" fill="#F23D5B"/>
<path d="M36 34C41.5228 34 46 29.5228 46 24C46 18.4771 41.5228 14 36 14C30.4771 14 26 18.4771 26 24C26 29.5228 30.4771 34 36 34Z" stroke="white" stroke-width="2" stroke-linecap="round" stroke-linejoin="round"/>
<path d="M36 20V24" stroke="white" stroke-width="2" stroke-linecap="round" stroke-linejoin="round"/>
<path d="M36 28.0101L36.01 27.999" stroke="white" stroke-width="2" stroke-linecap="round" stroke-linejoin="round"/>
<path d="M64.216 23.89C64.832 24.058 65.3127 24.352 65.658 24.772C66.0033 25.1827 66.176 25.6773 66.176 26.256C66.176 26.8347 65.9893 27.3433 65.616 27.782C65.252 28.2113 64.762 28.5427 64.146 28.776C63.5393 29 62.8767 29.112 62.158 29.112C61.5047 29.112 60.856 29.014 60.212 28.818C59.568 28.622 58.98 28.328 58.448 27.936L58.938 26.9C59.3673 27.236 59.848 27.488 60.38 27.656C60.912 27.824 61.4487 27.908 61.99 27.908C62.774 27.908 63.432 27.7447 63.964 27.418C64.496 27.082 64.762 26.6247 64.762 26.046C64.762 25.5513 64.5613 25.1733 64.16 24.912C63.7587 24.6413 63.194 24.506 62.466 24.506H60.282V23.372H62.368C62.9933 23.372 63.4787 23.246 63.824 22.994C64.1787 22.7327 64.356 22.3733 64.356 21.916C64.356 21.4027 64.1273 20.9967 63.67 20.698C63.2127 20.3993 62.634 20.25 61.934 20.25C61.4767 20.25 61.01 20.3153 60.534 20.446C60.0673 20.5767 59.624 20.7727 59.204 21.034L58.756 19.886C59.2507 19.606 59.7733 19.396 60.324 19.256C60.8747 19.116 61.4253 19.046 61.976 19.046C62.6667 19.046 63.3013 19.1533 63.88 19.368C64.4587 19.5827 64.916 19.8953 65.252 20.306C65.5973 20.7167 65.77 21.1973 65.77 21.748C65.77 22.2427 65.63 22.6767 65.35 23.05C65.0793 23.4233 64.7013 23.7033 64.216 23.89ZM70.9304 21.51C71.9571 21.51 72.7411 21.762 73.2824 22.266C73.8331 22.77 74.1084 23.5213 74.1084 24.52V29H72.8344V28.02C72.6104 28.3653 72.2884 28.6313 71.8684 28.818C71.4578 28.9953 70.9678 29.084 70.3984 29.084C69.5678 29.084 68.9004 28.8833 68.3964 28.482C67.9018 28.0807 67.6544 27.5533 67.6544 26.9C67.6544 26.2467 67.8924 25.724 68.3684 25.332C68.8444 24.9307 69.6004 24.73 70.6364 24.73H72.7644V24.464C72.7644 23.8853 72.5964 23.442 72.2604 23.134C71.9244 22.826 71.4298 22.672 70.7764 22.672C70.3378 22.672 69.9084 22.7467 69.4884 22.896C69.0684 23.036 68.7138 23.2273 68.4244 23.47L67.8644 22.462C68.2471 22.154 68.7044 21.9207 69.2364 21.762C69.7684 21.594 70.3331 21.51 70.9304 21.51ZM70.6224 28.048C71.1358 28.048 71.5791 27.936 71.9524 27.712C72.3258 27.4787 72.5964 27.152 72.7644 26.732V25.696H70.6924C69.5538 25.696 68.9844 26.0787 68.9844 26.844C68.9844 27.2173 69.1291 27.5113 69.4184 27.726C69.7078 27.9407 70.1091 28.048 70.6224 28.048ZM85.0826 21.58V29H83.8646V23.582L81.0926 28.16H80.5046L77.7606 23.568V29H76.5286V21.58H77.9146L80.8266 26.592L83.8226 21.58H85.0826ZM94.4045 25.332C94.4045 25.4347 94.3952 25.57 94.3765 25.738H88.3565C88.4405 26.3913 88.7252 26.9187 89.2105 27.32C89.7052 27.712 90.3165 27.908 91.0445 27.908C91.9312 27.908 92.6452 27.6093 93.1865 27.012L93.9285 27.88C93.5925 28.272 93.1725 28.5707 92.6685 28.776C92.1738 28.9813 91.6185 29.084 91.0025 29.084C90.2185 29.084 89.5232 28.9253 88.9165 28.608C88.3098 28.2813 87.8385 27.8287 87.5025 27.25C87.1758 26.6713 87.0125 26.018 87.0125 25.29C87.0125 24.5713 87.1712 23.9227 87.4885 23.344C87.8152 22.7653 88.2585 22.3173 88.8185 22C89.3878 21.6733 90.0272 21.51 90.7365 21.51C91.4458 21.51 92.0758 21.6733 92.6265 22C93.1865 22.3173 93.6205 22.7653 93.9285 23.344C94.2458 23.9227 94.4045 24.5853 94.4045 25.332ZM90.7365 22.644C90.0925 22.644 89.5512 22.84 89.1125 23.232C88.6832 23.624 88.4312 24.1373 88.3565 24.772H93.1165C93.0418 24.1467 92.7852 23.638 92.3465 23.246C91.9172 22.8447 91.3805 22.644 90.7365 22.644ZM101.705 22.756H98.989V29H97.645V22.756H94.929V21.58H101.705V22.756ZM105.963 25.864H104.423V29H103.079V21.58H104.423V24.716H105.991L108.399 21.58H109.841L107.027 25.15L110.037 29H108.455L105.963 25.864ZM113.956 21.51C114.982 21.51 115.766 21.762 116.308 22.266C116.858 22.77 117.134 23.5213 117.134 24.52V29H115.86V28.02C115.636 28.3653 115.314 28.6313 114.894 28.818C114.483 28.9953 113.993 29.084 113.424 29.084C112.593 29.084 111.926 28.8833 111.422 28.482C110.927 28.0807 110.68 27.5533 110.68 26.9C110.68 26.2467 110.918 25.724 111.394 25.332C111.87 24.9307 112.626 24.73 113.662 24.73H115.79V24.464C115.79 23.8853 115.622 23.442 115.286 23.134C114.95 22.826 114.455 22.672 113.802 22.672C113.363 22.672 112.934 22.7467 112.514 22.896C112.094 23.036 111.739 23.2273 111.45 23.47L110.89 22.462C111.272 22.154 111.73 21.9207 112.262 21.762C112.794 21.594 113.358 21.51 113.956 21.51ZM113.648 28.048C114.161 28.048 114.604 27.936 114.978 27.712C115.351 27.4787 115.622 27.152 115.79 26.732V25.696H113.718C112.579 25.696 112.01 26.0787 112.01 26.844C112.01 27.2173 112.154 27.5113 112.444 27.726C112.733 27.9407 113.134 28.048 113.648 28.048ZM129.936 21.58L126.338 29.742C126.02 30.498 125.647 31.03 125.218 31.338C124.798 31.646 124.289 31.8 123.692 31.8C123.328 31.8 122.973 31.7393 122.628 31.618C122.292 31.506 122.012 31.338 121.788 31.114L122.362 30.106C122.744 30.47 123.188 30.652 123.692 30.652C124.018 30.652 124.289 30.5633 124.504 30.386C124.728 30.218 124.928 29.924 125.106 29.504L125.344 28.986L122.068 21.58H123.468L126.058 27.516L128.62 21.58H129.936ZM138.461 27.824V30.722H137.201V29H130.999V30.722H129.725V27.824H130.117C130.593 27.796 130.92 27.46 131.097 26.816C131.275 26.172 131.396 25.262 131.461 24.086L131.573 21.58H137.327V27.824H138.461ZM132.693 24.184C132.656 25.1173 132.577 25.892 132.455 26.508C132.343 27.1147 132.133 27.5533 131.825 27.824H135.983V22.756H132.763L132.693 24.184ZM142.858 21.51C143.885 21.51 144.669 21.762 145.21 22.266C145.761 22.77 146.036 23.5213 146.036 24.52V29H144.762V28.02C144.538 28.3653 144.216 28.6313 143.796 28.818C143.385 28.9953 142.895 29.084 142.326 29.084C141.495 29.084 140.828 28.8833 140.324 28.482C139.829 28.0807 139.582 27.5533 139.582 26.9C139.582 26.2467 139.82 25.724 140.296 25.332C140.772 24.9307 141.528 24.73 142.564 24.73H144.692V24.464C144.692 23.8853 144.524 23.442 144.188 23.134C143.852 22.826 143.357 22.672 142.704 22.672C142.265 22.672 141.836 22.7467 141.416 22.896C140.996 23.036 140.641 23.2273 140.352 23.47L139.792 22.462C140.175 22.154 140.632 21.9207 141.164 21.762C141.696 21.594 142.261 21.51 142.858 21.51ZM142.55 28.048C143.063 28.048 143.507 27.936 143.88 27.712C144.253 27.4787 144.524 27.152 144.692 26.732V25.696H142.62C141.481 25.696 140.912 26.0787 140.912 26.844C140.912 27.2173 141.057 27.5113 141.346 27.726C141.635 27.9407 142.037 28.048 142.55 28.048ZM154.826 21.58V29H153.482V22.756H150.29L150.206 24.408C150.16 25.4067 150.071 26.242 149.94 26.914C149.81 27.5767 149.595 28.1087 149.296 28.51C148.998 28.9113 148.582 29.112 148.05 29.112C147.808 29.112 147.532 29.07 147.224 28.986L147.308 27.852C147.43 27.88 147.542 27.894 147.644 27.894C148.018 27.894 148.298 27.7307 148.484 27.404C148.671 27.0773 148.792 26.69 148.848 26.242C148.904 25.794 148.956 25.1547 149.002 24.324L149.128 21.58H154.826ZM164.131 25.332C164.131 25.4347 164.122 25.57 164.103 25.738H158.083C158.167 26.3913 158.452 26.9187 158.937 27.32C159.432 27.712 160.043 27.908 160.771 27.908C161.658 27.908 162.372 27.6093 162.913 27.012L163.655 27.88C163.319 28.272 162.899 28.5707 162.395 28.776C161.9 28.9813 161.345 29.084 160.729 29.084C159.945 29.084 159.25 28.9253 158.643 28.608C158.036 28.2813 157.565 27.8287 157.229 27.25C156.902 26.6713 156.739 26.018 156.739 25.29C156.739 24.5713 156.898 23.9227 157.215 23.344C157.542 22.7653 157.985 22.3173 158.545 22C159.114 21.6733 159.754 21.51 160.463 21.51C161.172 21.51 161.802 21.6733 162.353 22C162.913 22.3173 163.347 22.7653 163.655 23.344C163.972 23.9227 164.131 24.5853 164.131 25.332ZM160.463 22.644C159.819 22.644 159.278 22.84 158.839 23.232C158.41 23.624 158.158 24.1373 158.083 24.772H162.843C162.768 24.1467 162.512 23.638 162.073 23.246C161.644 22.8447 161.107 22.644 160.463 22.644ZM166.216 21.58H167.56V24.73H171.788V21.58H173.132V29H171.788V25.892H167.56V29H166.216V21.58ZM178.391 21.51C179.418 21.51 180.202 21.762 180.743 22.266C181.294 22.77 181.569 23.5213 181.569 24.52V29H180.295V28.02C180.071 28.3653 179.749 28.6313 179.329 28.818C178.919 28.9953 178.429 29.084 177.859 29.084C177.029 29.084 176.361 28.8833 175.857 28.482C175.363 28.0807 175.115 27.5533 175.115 26.9C175.115 26.2467 175.353 25.724 175.829 25.332C176.305 24.9307 177.061 24.73 178.097 24.73H180.225V24.464C180.225 23.8853 180.057 23.442 179.721 23.134C179.385 22.826 178.891 22.672 178.237 22.672C177.799 22.672 177.369 22.7467 176.949 22.896C176.529 23.036 176.175 23.2273 175.885 23.47L175.325 22.462C175.708 22.154 176.165 21.9207 176.697 21.762C177.229 21.594 177.794 21.51 178.391 21.51ZM178.083 28.048C178.597 28.048 179.04 27.936 179.413 27.712C179.787 27.4787 180.057 27.152 180.225 26.732V25.696H178.153C177.015 25.696 176.445 26.0787 176.445 26.844C176.445 27.2173 176.59 27.5113 176.879 27.726C177.169 27.9407 177.57 28.048 178.083 28.048ZM183.78 19.2H185.362L185.096 25.906H184.032L183.78 19.2ZM184.578 29.084C184.316 29.084 184.097 29 183.92 28.832C183.742 28.6547 183.654 28.44 183.654 28.188C183.654 27.936 183.742 27.726 183.92 27.558C184.097 27.3807 184.316 27.292 184.578 27.292C184.839 27.292 185.054 27.3807 185.222 27.558C185.39 27.726 185.474 27.936 185.474 28.188C185.474 28.44 185.385 28.6547 185.208 28.832C185.04 29 184.83 29.084 184.578 29.084Z" fill="white"/>
</g>
<defs>
<filter id="filter0_ddd_2_3894" x="-24" y="-8" width="259" height="96" filterUnits="userSpaceOnUse" color-interpolation-filters="sRGB">
<feFlood flood-opacity="0" result="BackgroundImageFix"/>
<feColorMatrix in="SourceAlpha" type="matrix" values="0 0 0 0 0 0 0 0 0 0 0 0 0 0 0 0 0 0 127 0" result="hardAlpha"/>
<feOffset dy="8"/>
<feGaussianBlur stdDeviation="6"/>
<feColorMatrix type="matrix" values="0 0 0 0 0.045 0 0 0 0 0.0458333 0 0 0 0 0.05 0 0 0 0.08 0"/>
<feBlend mode="normal" in2="BackgroundImageFix" result="effect1_dropShadow_2_3894"/>
<feColorMatrix in="SourceAlpha" type="matrix" values="0 0 0 0 0 0 0 0 0 0 0 0 0 0 0 0 0 0 127 0" result="hardAlpha"/>
<feOffset dy="16"/>
<feGaussianBlur stdDeviation="12"/>
<feColorMatrix type="matrix" values="0 0 0 0 0.045 0 0 0 0 0.0458333 0 0 0 0 0.05 0 0 0 0.04 0"/>
<feBlend mode="normal" in2="effect1_dropShadow_2_3894" result="effect2_dropShadow_2_3894"/>
<feColorMatrix in="SourceAlpha" type="matrix" values="0 0 0 0 0 0 0 0 0 0 0 0 0 0 0 0 0 0 127 0" result="hardAlpha"/>
<feOffset dy="1"/>
<feGaussianBlur stdDeviation="1"/>
<feColorMatrix type="matrix" values="0 0 0 0 0.045 0 0 0 0 0.0458333 0 0 0 0 0.05 0 0 0 0.08 0"/>
<feBlend mode="normal" in2="effect2_dropShadow_2_3894" result="effect3_dropShadow_2_3894"/>
<feBlend mode="normal" in="SourceGraphic" in2="effect3_dropShadow_2_3894" result="shape"/>
</filter>
</defs>
</svg>
