<svg width="278" height="96" viewBox="0 0 278 96" fill="none" xmlns="http://www.w3.org/2000/svg">
<g filter="url(#filter0_ddd_2_3141)">
<rect x="20" y="8" width="234" height="48" rx="10" fill="#F23D5B"/>
<path d="M56 42C61.5228 42 66 37.5228 66 32C66 26.4771 61.5228 22 56 22C50.4771 22 46 26.4771 46 32C46 37.5228 50.4771 42 56 42Z" stroke="white" stroke-width="2" stroke-linecap="round" stroke-linejoin="round"/>
<path d="M56 28V32" stroke="white" stroke-width="2" stroke-linecap="round" stroke-linejoin="round"/>
<path d="M56 36.01L56.01 35.9989" stroke="white" stroke-width="2" stroke-linecap="round" stroke-linejoin="round"/>
<path d="M84.216 31.89C84.832 32.058 85.3127 32.352 85.658 32.772C86.0033 33.1827 86.176 33.6773 86.176 34.256C86.176 34.8347 85.9893 35.3433 85.616 35.782C85.252 36.2113 84.762 36.5427 84.146 36.776C83.5393 37 82.8767 37.112 82.158 37.112C81.5047 37.112 80.856 37.014 80.212 36.818C79.568 36.622 78.98 36.328 78.448 35.936L78.938 34.9C79.3673 35.236 79.848 35.488 80.38 35.656C80.912 35.824 81.4487 35.908 81.99 35.908C82.774 35.908 83.432 35.7447 83.964 35.418C84.496 35.082 84.762 34.6247 84.762 34.046C84.762 33.5513 84.5613 33.1733 84.16 32.912C83.7587 32.6413 83.194 32.506 82.466 32.506H80.282V31.372H82.368C82.9933 31.372 83.4787 31.246 83.824 30.994C84.1787 30.7327 84.356 30.3733 84.356 29.916C84.356 29.4027 84.1273 28.9967 83.67 28.698C83.2127 28.3993 82.634 28.25 81.934 28.25C81.4767 28.25 81.01 28.3153 80.534 28.446C80.0673 28.5767 79.624 28.7727 79.204 29.034L78.756 27.886C79.2507 27.606 79.7733 27.396 80.324 27.256C80.8747 27.116 81.4253 27.046 81.976 27.046C82.6667 27.046 83.3013 27.1533 83.88 27.368C84.4587 27.5827 84.916 27.8953 85.252 28.306C85.5973 28.7167 85.77 29.1973 85.77 29.748C85.77 30.2427 85.63 30.6767 85.35 31.05C85.0793 31.4233 84.7013 31.7033 84.216 31.89ZM90.9304 29.51C91.9571 29.51 92.7411 29.762 93.2824 30.266C93.8331 30.77 94.1084 31.5213 94.1084 32.52V37H92.8344V36.02C92.6104 36.3653 92.2884 36.6313 91.8684 36.818C91.4578 36.9953 90.9678 37.084 90.3984 37.084C89.5678 37.084 88.9004 36.8833 88.3964 36.482C87.9018 36.0807 87.6544 35.5533 87.6544 34.9C87.6544 34.2467 87.8924 33.724 88.3684 33.332C88.8444 32.9307 89.6004 32.73 90.6364 32.73H92.7644V32.464C92.7644 31.8853 92.5964 31.442 92.2604 31.134C91.9244 30.826 91.4298 30.672 90.7764 30.672C90.3378 30.672 89.9084 30.7467 89.4884 30.896C89.0684 31.036 88.7138 31.2273 88.4244 31.47L87.8644 30.462C88.2471 30.154 88.7044 29.9207 89.2364 29.762C89.7684 29.594 90.3331 29.51 90.9304 29.51ZM90.6224 36.048C91.1358 36.048 91.5791 35.936 91.9524 35.712C92.3258 35.4787 92.5964 35.152 92.7644 34.732V33.696H90.6924C89.5538 33.696 88.9844 34.0787 88.9844 34.844C88.9844 35.2173 89.1291 35.5113 89.4184 35.726C89.7078 35.9407 90.1091 36.048 90.6224 36.048ZM103.403 29.58V37H102.059V30.756H97.8726V37H96.5286V29.58H103.403ZM109.181 37.084C108.444 37.084 107.781 36.9207 107.193 36.594C106.605 36.2673 106.143 35.8193 105.807 35.25C105.481 34.6713 105.317 34.018 105.317 33.29C105.317 32.562 105.481 31.9133 105.807 31.344C106.143 30.7653 106.605 30.3173 107.193 30C107.781 29.6733 108.444 29.51 109.181 29.51C109.919 29.51 110.577 29.6733 111.155 30C111.743 30.3173 112.201 30.7653 112.527 31.344C112.863 31.9133 113.031 32.562 113.031 33.29C113.031 34.018 112.863 34.6713 112.527 35.25C112.201 35.8193 111.743 36.2673 111.155 36.594C110.577 36.9207 109.919 37.084 109.181 37.084ZM109.181 35.908C109.657 35.908 110.082 35.8007 110.455 35.586C110.838 35.362 111.137 35.054 111.351 34.662C111.566 34.2607 111.673 33.8033 111.673 33.29C111.673 32.7767 111.566 32.324 111.351 31.932C111.137 31.5307 110.838 31.2227 110.455 31.008C110.082 30.7933 109.657 30.686 109.181 30.686C108.705 30.686 108.276 30.7933 107.893 31.008C107.52 31.2227 107.221 31.5307 106.997 31.932C106.783 32.324 106.675 32.7767 106.675 33.29C106.675 33.8033 106.783 34.2607 106.997 34.662C107.221 35.054 107.52 35.362 107.893 35.586C108.276 35.8007 108.705 35.908 109.181 35.908ZM121.287 29.58V37H119.943V30.756H116.751L116.667 32.408C116.621 33.4067 116.532 34.242 116.401 34.914C116.271 35.5767 116.056 36.1087 115.757 36.51C115.459 36.9113 115.043 37.112 114.511 37.112C114.269 37.112 113.993 37.07 113.685 36.986L113.769 35.852C113.891 35.88 114.003 35.894 114.105 35.894C114.479 35.894 114.759 35.7307 114.945 35.404C115.132 35.0773 115.253 34.69 115.309 34.242C115.365 33.794 115.417 33.1547 115.463 32.324L115.589 29.58H121.287ZM123.886 29.58H125.23V32.73H129.458V29.58H130.802V37H129.458V33.892H125.23V37H123.886V29.58ZM133.415 29.58H134.759V34.984L139.309 29.58H140.527V37H139.183V31.596L134.647 37H133.415V29.58ZM148.666 30.756H145.95V37H144.606V30.756H141.89V29.58H148.666V30.756ZM156.418 33.332C156.418 33.4347 156.409 33.57 156.39 33.738H150.37C150.454 34.3913 150.739 34.9187 151.224 35.32C151.719 35.712 152.33 35.908 153.058 35.908C153.945 35.908 154.659 35.6093 155.2 35.012L155.942 35.88C155.606 36.272 155.186 36.5707 154.682 36.776C154.187 36.9813 153.632 37.084 153.016 37.084C152.232 37.084 151.537 36.9253 150.93 36.608C150.323 36.2813 149.852 35.8287 149.516 35.25C149.189 34.6713 149.026 34.018 149.026 33.29C149.026 32.5713 149.185 31.9227 149.502 31.344C149.829 30.7653 150.272 30.3173 150.832 30C151.401 29.6733 152.041 29.51 152.75 29.51C153.459 29.51 154.089 29.6733 154.64 30C155.2 30.3173 155.634 30.7653 155.942 31.344C156.259 31.9227 156.418 32.5853 156.418 33.332ZM152.75 30.644C152.106 30.644 151.565 30.84 151.126 31.232C150.697 31.624 150.445 32.1373 150.37 32.772H155.13C155.055 32.1467 154.799 31.638 154.36 31.246C153.931 30.8447 153.394 30.644 152.75 30.644ZM167.317 33.15C168.278 33.3927 168.759 33.9947 168.759 34.956C168.759 35.6093 168.512 36.1133 168.017 36.468C167.532 36.8227 166.804 37 165.833 37H162.263V29.58H165.707C166.584 29.58 167.27 29.748 167.765 30.084C168.26 30.4107 168.507 30.8773 168.507 31.484C168.507 31.876 168.4 32.2167 168.185 32.506C167.98 32.786 167.69 33.0007 167.317 33.15ZM163.579 32.772H165.595C166.108 32.772 166.496 32.6787 166.757 32.492C167.028 32.3053 167.163 32.0347 167.163 31.68C167.163 30.9707 166.64 30.616 165.595 30.616H163.579V32.772ZM165.735 35.964C166.295 35.964 166.715 35.8753 166.995 35.698C167.275 35.5207 167.415 35.2453 167.415 34.872C167.415 34.4893 167.284 34.2047 167.023 34.018C166.771 33.8313 166.37 33.738 165.819 33.738H163.579V35.964H165.735ZM174.097 37.084C173.341 37.084 172.664 36.9207 172.067 36.594C171.479 36.2673 171.017 35.8193 170.681 35.25C170.345 34.6713 170.177 34.018 170.177 33.29C170.177 32.562 170.345 31.9133 170.681 31.344C171.017 30.7653 171.479 30.3173 172.067 30C172.664 29.6733 173.341 29.51 174.097 29.51C174.769 29.51 175.366 29.6453 175.889 29.916C176.421 30.1867 176.831 30.5787 177.121 31.092L176.099 31.75C175.865 31.3953 175.576 31.1293 175.231 30.952C174.885 30.7747 174.503 30.686 174.083 30.686C173.597 30.686 173.159 30.7933 172.767 31.008C172.384 31.2227 172.081 31.5307 171.857 31.932C171.642 32.324 171.535 32.7767 171.535 33.29C171.535 33.8127 171.642 34.2747 171.857 34.676C172.081 35.068 172.384 35.3713 172.767 35.586C173.159 35.8007 173.597 35.908 174.083 35.908C174.503 35.908 174.885 35.8193 175.231 35.642C175.576 35.4647 175.865 35.1987 176.099 34.844L177.121 35.488C176.831 36.0013 176.421 36.398 175.889 36.678C175.366 36.9487 174.769 37.084 174.097 37.084ZM185.457 33.332C185.457 33.4347 185.448 33.57 185.429 33.738H179.409C179.493 34.3913 179.778 34.9187 180.263 35.32C180.758 35.712 181.369 35.908 182.097 35.908C182.984 35.908 183.698 35.6093 184.239 35.012L184.981 35.88C184.645 36.272 184.225 36.5707 183.721 36.776C183.227 36.9813 182.671 37.084 182.055 37.084C181.271 37.084 180.576 36.9253 179.969 36.608C179.363 36.2813 178.891 35.8287 178.555 35.25C178.229 34.6713 178.065 34.018 178.065 33.29C178.065 32.5713 178.224 31.9227 178.541 31.344C178.868 30.7653 179.311 30.3173 179.871 30C180.441 29.6733 181.08 29.51 181.789 29.51C182.499 29.51 183.129 29.6733 183.679 30C184.239 30.3173 184.673 30.7653 184.981 31.344C185.299 31.9227 185.457 32.5853 185.457 33.332ZM181.789 30.644C181.145 30.644 180.604 30.84 180.165 31.232C179.736 31.624 179.484 32.1373 179.409 32.772H184.169C184.095 32.1467 183.838 31.638 183.399 31.246C182.97 30.8447 182.433 30.644 181.789 30.644ZM198.176 29.58V37H196.832V30.756H192.646V37H191.302V29.58H198.176ZM203.955 37.084C203.217 37.084 202.555 36.9207 201.967 36.594C201.379 36.2673 200.917 35.8193 200.581 35.25C200.254 34.6713 200.091 34.018 200.091 33.29C200.091 32.562 200.254 31.9133 200.581 31.344C200.917 30.7653 201.379 30.3173 201.967 30C202.555 29.6733 203.217 29.51 203.955 29.51C204.692 29.51 205.35 29.6733 205.929 30C206.517 30.3173 206.974 30.7653 207.301 31.344C207.637 31.9133 207.805 32.562 207.805 33.29C207.805 34.018 207.637 34.6713 207.301 35.25C206.974 35.8193 206.517 36.2673 205.929 36.594C205.35 36.9207 204.692 37.084 203.955 37.084ZM203.955 35.908C204.431 35.908 204.855 35.8007 205.229 35.586C205.611 35.362 205.91 35.054 206.125 34.662C206.339 34.2607 206.447 33.8033 206.447 33.29C206.447 32.7767 206.339 32.324 206.125 31.932C205.91 31.5307 205.611 31.2227 205.229 31.008C204.855 30.7933 204.431 30.686 203.955 30.686C203.479 30.686 203.049 30.7933 202.667 31.008C202.293 31.2227 201.995 31.5307 201.771 31.932C201.556 32.324 201.449 32.7767 201.449 33.29C201.449 33.8033 201.556 34.2607 201.771 34.662C201.995 35.054 202.293 35.362 202.667 35.586C203.049 35.8007 203.479 35.908 203.955 35.908ZM216.061 29.58V37H214.717V30.756H211.525L211.441 32.408C211.394 33.4067 211.305 34.242 211.175 34.914C211.044 35.5767 210.829 36.1087 210.531 36.51C210.232 36.9113 209.817 37.112 209.285 37.112C209.042 37.112 208.767 37.07 208.459 36.986L208.543 35.852C208.664 35.88 208.776 35.894 208.879 35.894C209.252 35.894 209.532 35.7307 209.719 35.404C209.905 35.0773 210.027 34.69 210.083 34.242C210.139 33.794 210.19 33.1547 210.237 32.324L210.363 29.58H216.061ZM224.609 29.58V37H223.405V34.648H221.249H221.095L219.471 37H218.029L219.835 34.466C219.275 34.298 218.846 34.0227 218.547 33.64C218.249 33.248 218.099 32.7627 218.099 32.184C218.099 31.3347 218.389 30.6907 218.967 30.252C219.546 29.804 220.344 29.58 221.361 29.58H224.609ZM219.471 32.226C219.471 32.7207 219.625 33.0893 219.933 33.332C220.251 33.5653 220.722 33.682 221.347 33.682H223.405V30.756H221.403C220.115 30.756 219.471 31.246 219.471 32.226ZM227.022 27.2H228.604L228.338 33.906H227.274L227.022 27.2ZM227.82 37.084C227.558 37.084 227.339 37 227.162 36.832C226.984 36.6547 226.896 36.44 226.896 36.188C226.896 35.936 226.984 35.726 227.162 35.558C227.339 35.3807 227.558 35.292 227.82 35.292C228.081 35.292 228.296 35.3807 228.464 35.558C228.632 35.726 228.716 35.936 228.716 36.188C228.716 36.44 228.627 36.6547 228.45 36.832C228.282 37 228.072 37.084 227.82 37.084Z" fill="white"/>
</g>
<defs>
<filter id="filter0_ddd_2_3141" x="-4" y="0" width="282" height="96" filterUnits="userSpaceOnUse" color-interpolation-filters="sRGB">
<feFlood flood-opacity="0" result="BackgroundImageFix"/>
<feColorMatrix in="SourceAlpha" type="matrix" values="0 0 0 0 0 0 0 0 0 0 0 0 0 0 0 0 0 0 127 0" result="hardAlpha"/>
<feOffset dy="8"/>
<feGaussianBlur stdDeviation="6"/>
<feColorMatrix type="matrix" values="0 0 0 0 0.045 0 0 0 0 0.0458333 0 0 0 0 0.05 0 0 0 0.08 0"/>
<feBlend mode="normal" in2="BackgroundImageFix" result="effect1_dropShadow_2_3141"/>
<feColorMatrix in="SourceAlpha" type="matrix" values="0 0 0 0 0 0 0 0 0 0 0 0 0 0 0 0 0 0 127 0" result="hardAlpha"/>
<feOffset dy="16"/>
<feGaussianBlur stdDeviation="12"/>
<feColorMatrix type="matrix" values="0 0 0 0 0.045 0 0 0 0 0.0458333 0 0 0 0 0.05 0 0 0 0.04 0"/>
<feBlend mode="normal" in2="effect1_dropShadow_2_3141" result="effect2_dropShadow_2_3141"/>
<feColorMatrix in="SourceAlpha" type="matrix" values="0 0 0 0 0 0 0 0 0 0 0 0 0 0 0 0 0 0 127 0" result="hardAlpha"/>
<feOffset dy="1"/>
<feGaussianBlur stdDeviation="1"/>
<feColorMatrix type="matrix" values="0 0 0 0 0.045 0 0 0 0 0.0458333 0 0 0 0 0.05 0 0 0 0.08 0"/>
<feBlend mode="normal" in2="effect2_dropShadow_2_3141" result="effect3_dropShadow_2_3141"/>
<feBlend mode="normal" in="SourceGraphic" in2="effect3_dropShadow_2_3141" result="shape"/>
</filter>
</defs>
</svg>
